<svg width="77" height="74" viewBox="0 0 77 74" fill="none" xmlns="http://www.w3.org/2000/svg">
<path d="M25.3275 22.1829L2.99746 25.4204L2.60196 25.5009C2.00325 25.6598 1.45745 25.9748 1.02029 26.4137C0.583127 26.8526 0.270276 27.3996 0.113681 27.9989C-0.0429133 28.5983 -0.0376407 29.2284 0.12896 29.825C0.295562 30.4217 0.617522 30.9634 1.06196 31.3949L17.239 47.1414L13.424 69.3839L13.3785 69.7689C13.3418 70.3881 13.4704 71.006 13.751 71.5592C14.0317 72.1124 14.4543 72.581 14.9756 72.9172C15.497 73.2533 16.0983 73.4449 16.718 73.4723C17.3377 73.4996 17.9535 73.3618 18.5025 73.0729L38.4735 62.5729L58.399 73.0729L58.749 73.2339C59.3267 73.4614 59.9545 73.5312 60.5681 73.4361C61.1817 73.3409 61.7589 73.0842 62.2405 72.6923C62.7222 72.3005 63.0909 71.7875 63.3089 71.2061C63.5269 70.6247 63.5863 69.9958 63.481 69.3839L59.6625 47.1414L75.8465 31.3914L76.1195 31.0939C76.5094 30.6136 76.7651 30.0385 76.8605 29.4272C76.9558 28.8159 76.8874 28.1902 76.6623 27.6139C76.4371 27.0377 76.0632 26.5314 75.5787 26.1467C75.0941 25.762 74.5163 25.5126 73.904 25.4239L51.574 22.1829L41.592 1.95289C41.3031 1.36676 40.856 0.873195 40.3011 0.528059C39.7463 0.182922 39.1059 0 38.4525 0C37.799 0 37.1586 0.182922 36.6038 0.528059C36.049 0.873195 35.6018 1.36676 35.313 1.95289L25.3275 22.1829Z" fill="#E2E8F0"/>
</svg>
